<?xml version="1.0" encoding="UTF-8" standalone="no"?>
<!-- Created with Inkscape (http://www.inkscape.org/) -->
<svg
   xmlns:svg="http://www.w3.org/2000/svg"
   xmlns="http://www.w3.org/2000/svg"
   version="1.0"
   width="330.47946"
   height="325.95135"
   id="svg2">
  <defs
     id="defs4" />
  <path
     d="M 227.1271,51.998016 C 225.23853,28.705716 149.06643,-33.616914 82.337139,29.335246 C 15.607859,92.287396 9.9421589,62.699886 3.6469489,63.958926 C -2.6482711,65.217966 9.9127589,78.852306 27.568759,76.549356 C 71.005749,70.883666 99.963739,16.744806 140.25312,17.374326 C 180.85109,18.008666 202.57576,53.257066 202.57576,53.257066 L 227.1271,51.998016 z"
     id="path3264"
     style="fill:#cccccc;fill-opacity:1;fill-rule:evenodd;stroke:#000000;stroke-width:4;stroke-linecap:butt;stroke-linejoin:miter;stroke-miterlimit:4;stroke-dasharray:none;stroke-opacity:1" />
  <path
     d="M 140.1875,11.1875 C 122.13316,11.396161 102.59774,18.507168 83.90625,37.25 C 66.696585,54.506937 54.026569,64.418012 44.5625,69.875 L 44.5625,71.8125 C 79.090365,57.164339 105.44826,16.831224 140.25,17.375 C 180.84798,18.009339 202.5625,53.25 202.5625,53.25 L 212,52.78125 C 204.71659,36.290853 175.21487,10.782674 140.1875,11.1875 z"
     id="path2407"
     style="fill:#000000;fill-opacity:0.31372549;fill-rule:evenodd;stroke:none;stroke-width:4;stroke-linecap:butt;stroke-linejoin:miter;stroke-miterlimit:4;stroke-dasharray:none;stroke-opacity:1" />
  <path
     d="M 317.14868,151.46242 C 317.14868,208.45175 255.33099,313.24946 213.90714,313.24946 C 171.32229,313.24946 110.6656,208.45175 110.6656,151.46242 C 110.6656,94.473086 156.91781,48.220876 213.90714,48.220876 C 270.89647,48.220876 317.14868,94.473086 317.14868,151.46242 z"
     id="path2383"
     style="fill:#cccccc;fill-opacity:1;fill-rule:nonzero;stroke:#000000;stroke-width:4;stroke-linecap:round;stroke-linejoin:miter;stroke-miterlimit:4;stroke-dasharray:none;stroke-opacity:1" />
  <path
     d="M 315.76072,134.60726 C 316.00902,137.52605 316.13572,140.4683 316.13572,143.45101 C 316.13571,200.44034 254.34082,305.26351 212.91697,305.26351 C 174.07705,305.2635 120.18559,218.0839 111.01072,159.51351 C 116.12176,217.76055 173.26891,313.2635 213.91697,313.26351 C 255.34082,313.26351 317.13571,208.44034 317.13572,151.45101 C 317.13572,145.71212 316.66251,140.09212 315.76072,134.60726 z"
     id="path3397"
     style="fill:#000000;fill-opacity:0.31372549;fill-rule:nonzero;stroke:none;stroke-width:4;stroke-linecap:round;stroke-linejoin:miter;stroke-miterlimit:4;stroke-dasharray:none;stroke-opacity:1" />
  <path
     d="M 285.66697,233.04476 C 309.69718,230.68011 328.47948,210.41193 328.47947,185.76351 C 328.47947,159.52757 307.18416,138.23223 280.94822,138.23226 C 254.71228,138.23226 233.41696,159.52755 233.41697,185.76351 C 233.41697,187.60753 233.52477,189.44276 233.72947,191.23226"
     id="path2386"
     style="fill:#cccccc;fill-opacity:1;fill-rule:nonzero;stroke:#000000;stroke-width:4;stroke-linecap:round;stroke-linejoin:miter;stroke-miterlimit:4;stroke-dasharray:none;stroke-opacity:1" />
  <path
     d="M 190.85447,191.76351 C 191.10149,189.80169 191.22947,187.79198 191.22947,185.76351 C 191.22947,159.52757 169.9654,138.23223 143.72947,138.23226 C 117.49353,138.23226 96.198209,159.52755 96.198219,185.76351 C 96.198219,211.02 115.91269,231.69246 140.79197,233.20101"
     id="path2388"
     style="fill:#cccccc;fill-opacity:1;fill-rule:nonzero;stroke:#000000;stroke-width:4;stroke-linecap:round;stroke-linejoin:miter;stroke-miterlimit:4;stroke-dasharray:none;stroke-opacity:1" />
  <path
     d="M 225.32187,291.60402 C 225.32187,297.73121 217.98738,305.06569 214.2219,305.06569 C 209.98408,305.06569 203.12194,297.73121 203.12194,291.60402 C 203.12194,285.47685 208.09472,286.17213 214.2219,286.17213 C 220.34908,286.17213 225.32187,285.47685 225.32187,291.60402 z"
     id="path2390"
     style="fill:#000000;fill-opacity:1;fill-rule:nonzero;stroke:none;stroke-width:2;stroke-linecap:round;stroke-linejoin:miter;stroke-miterlimit:4;stroke-opacity:1" />
  <path
     d="M 191.8739,250.61208 C 191.87581,256.3505 188.35217,261.00374 184.00487,261.00374 C 179.65759,261.00374 176.13395,256.3505 176.13586,250.61208 C 176.13395,244.87366 179.65759,240.22042 184.00487,240.22042 C 188.35217,240.22042 191.87581,244.87366 191.8739,250.61208 z"
     id="path2397"
     style="fill:#000000;fill-opacity:1;fill-rule:nonzero;stroke:#000000;stroke-width:2;stroke-linecap:round;stroke-linejoin:miter;stroke-miterlimit:4;stroke-dasharray:none;stroke-opacity:1" />
  <path
     d="M 248.53084,250.61208 C 248.53275,256.3505 245.00911,261.00374 240.66181,261.00374 C 236.31452,261.00374 232.79089,256.3505 232.7928,250.61208 C 232.79089,244.87366 236.31452,240.22042 240.66181,240.22042 C 245.00911,240.22042 248.53275,244.87366 248.53084,250.61208 z"
     id="path2399"
     style="fill:#000000;fill-opacity:1;fill-rule:nonzero;stroke:#000000;stroke-width:2;stroke-linecap:round;stroke-linejoin:miter;stroke-miterlimit:4;stroke-dasharray:none;stroke-opacity:1" />
  <path
     d="M 187.15249,248.1967 C 187.15331,250.16656 186.16661,251.76416 184.94917,251.76416 C 183.73172,251.76416 182.74502,250.16656 182.74584,248.1967 C 182.74502,246.22684 183.73172,244.62924 184.94917,244.62924 C 186.16661,244.62924 187.15331,246.22684 187.15249,248.1967 L 187.15249,248.1967 z"
     id="path2401"
     style="fill:#ffffff;fill-opacity:1;fill-rule:nonzero;stroke:none;stroke-width:2;stroke-linecap:round;stroke-linejoin:miter;stroke-miterlimit:4;stroke-dasharray:none;stroke-opacity:1" />
  <path
     d="M 242.23562,249.14098 C 242.23644,251.11084 241.24974,252.70844 240.0323,252.70844 C 238.81485,252.70844 237.82815,251.11084 237.82897,249.14098 C 237.82815,247.17112 238.81485,245.57352 240.0323,245.57352 C 241.24974,245.57352 242.23644,247.17112 242.23562,249.14098 L 242.23562,249.14098 z"
     id="path2403"
     style="fill:#ffffff;fill-opacity:1;fill-rule:nonzero;stroke:none;stroke-width:2;stroke-linecap:round;stroke-linejoin:miter;stroke-miterlimit:4;stroke-dasharray:none;stroke-opacity:1" />
  <path
     d="M 281.07322,144.98226 C 263.24362,145.23342 246.71563,159.07731 242.44822,176.23226 C 250.82893,170.71907 261.34631,167.41976 272.76072,167.41976 C 295.70121,167.41974 315.00176,180.69093 320.63572,198.66976 C 329.60795,174.71285 309.07411,144.80834 283.13572,145.01351 C 282.44549,144.98223 281.76025,144.97258 281.07322,144.98226 z"
     id="path2427"
     style="fill:#000000;fill-opacity:0.31372549;fill-rule:nonzero;stroke:none;stroke-width:2;stroke-linecap:round;stroke-linejoin:miter;stroke-miterlimit:4;stroke-dasharray:none;stroke-opacity:1" />
  <g
     transform="matrix(1.3917402,0,0,1.4058212,-239.24654,-659.88464)"
     id="g3221"
     style="stroke:#000000;stroke-width:2.85966969;stroke-linecap:round;stroke-miterlimit:4;stroke-dasharray:none;stroke-opacity:1">
    <path
       d="M 340.57116,672.76068 C 373.30628,657.65217 388.4148,671.50164 388.4148,671.50164"
       id="path2445"
       style="fill:none;fill-opacity:0.75;fill-rule:evenodd;stroke:#000000;stroke-width:2.85966969;stroke-linecap:round;stroke-linejoin:miter;stroke-miterlimit:4;stroke-dasharray:none;stroke-opacity:1" />
    <path
       d="M 337.42356,678.42638 C 361.34537,663.31786 382.11958,687.8692 382.11958,687.8692"
       id="path2447"
       style="fill:none;fill-opacity:0.75;fill-rule:evenodd;stroke:#000000;stroke-width:2.85966969;stroke-linecap:round;stroke-linejoin:miter;stroke-miterlimit:4;stroke-dasharray:none;stroke-opacity:1" />
    <path
       d="M 337.42356,681.57398 C 362.60442,668.98355 367.01107,699.83011 367.01107,699.83011"
       id="path2449"
       style="fill:none;fill-opacity:0.75;fill-rule:evenodd;stroke:#000000;stroke-width:2.85966969;stroke-linecap:round;stroke-linejoin:miter;stroke-miterlimit:4;stroke-dasharray:none;stroke-opacity:1" />
  </g>
  <g
     transform="matrix(-1.3917402,0,0,1.4058212,667.06082,-659.88464)"
     id="g3384"
     style="stroke:#000000;stroke-width:2.85966969;stroke-linecap:round;stroke-miterlimit:4;stroke-dasharray:none;stroke-opacity:1">
    <path
       d="M 340.57116,672.76068 C 373.30628,657.65217 388.4148,671.50164 388.4148,671.50164"
       id="path3386"
       style="fill:none;fill-opacity:0.75;fill-rule:evenodd;stroke:#000000;stroke-width:2.85966969;stroke-linecap:round;stroke-linejoin:miter;stroke-miterlimit:4;stroke-dasharray:none;stroke-opacity:1" />
    <path
       d="M 337.42356,678.42638 C 361.34537,663.31786 382.11958,687.8692 382.11958,687.8692"
       id="path3388"
       style="fill:none;fill-opacity:0.75;fill-rule:evenodd;stroke:#000000;stroke-width:2.85966969;stroke-linecap:round;stroke-linejoin:miter;stroke-miterlimit:4;stroke-dasharray:none;stroke-opacity:1" />
    <path
       d="M 337.42356,681.57398 C 362.60442,668.98355 367.01107,699.83011 367.01107,699.83011"
       id="path3390"
       style="fill:none;fill-opacity:0.75;fill-rule:evenodd;stroke:#000000;stroke-width:2.85966969;stroke-linecap:round;stroke-linejoin:miter;stroke-miterlimit:4;stroke-dasharray:none;stroke-opacity:1" />
  </g>
  <path
     d="M 145.55775,144.98226 C 163.38735,145.23342 179.91534,159.07731 184.18275,176.23226 C 175.80204,170.71907 165.28466,167.41976 153.87025,167.41976 C 130.92976,167.41974 111.62921,180.69093 105.99525,198.66976 C 97.023019,174.71285 117.55686,144.80834 143.49525,145.01351 C 144.18548,144.98223 144.87072,144.97258 145.55775,144.98226 z"
     id="path3405"
     style="fill:#000000;fill-opacity:0.31372549;fill-rule:nonzero;stroke:none;stroke-width:2;stroke-linecap:round;stroke-linejoin:miter;stroke-miterlimit:4;stroke-dasharray:none;stroke-opacity:1" />
</svg>
